<svg xmlns="http://www.w3.org/2000/svg" viewBox="1.70 0.45 34 34" fill="none" role="img" aria-label="Brandon Poplstein">
  <style>
    .bp-p{stroke:#F5F5F7}
    @media (prefers-color-scheme: light){.bp-p{stroke:#0A0A0C}}
  </style>
  <path class="bp-p" d="M9 27.5 V5.5 H17 A6 6 0 0 1 17 17.5 H9" stroke-width="3.2" stroke-linecap="round" stroke-linejoin="round"/>
  <g transform="translate(18 19) scale(0.5)" fill="#3EDE6F">
    <path d="M 6.447 0 C 2.892 0 0 2.882 0 6.425 L 0 8.753 L 15.217 8.753 L 15.217 23.918 L 17.553 23.918 C 21.108 23.918 24 21.036 24 17.494 L 24 0 L 6.447 0 Z M 17.895 21.231 L 17.895 6.084 L 2.696 6.084 C 2.869 4.173 4.487 2.672 6.447 2.672 L 21.319 2.672 L 21.319 17.494 C 21.319 19.449 19.812 21.059 17.895 21.231 Z"/>
    <path d="M 10.186 13.787 C 9.067 12.703 7.589 12.104 6.027 12.104 C 5.998 12.104 5.97 12.104 5.941 12.104 C 4.345 12.126 2.854 12.765 1.744 13.902 C -0.55 16.255 -0.497 20.028 1.862 22.317 C 2.98 23.401 4.458 24 6.023 24 C 6.052 24 6.08 24 6.109 24 C 7.705 23.978 9.196 23.339 10.306 22.202 C 11.415 21.065 12.014 19.561 11.992 17.971 C 11.968 16.379 11.327 14.893 10.186 13.787 Z M 9.225 18.007 C 9.236 18.86 8.917 19.665 8.32 20.276 C 7.725 20.886 6.924 21.229 6.067 21.24 C 6.052 21.24 6.036 21.24 6.021 21.24 C 5.179 21.24 4.392 20.921 3.79 20.338 C 3.178 19.745 2.834 18.947 2.823 18.093 C 2.812 17.239 3.131 16.434 3.728 15.824 C 4.356 15.18 5.191 14.86 6.025 14.86 C 6.831 14.86 7.636 15.16 8.257 15.762 C 8.868 16.357 9.212 17.153 9.225 18.007 Z"/>
  </g>
</svg>
